<svg viewBox="0 0 117 52" xmlns="http://www.w3.org/2000/svg" fill-rule="evenodd" clip-rule="evenodd" stroke-linejoin="round" stroke-miterlimit="1.414"><path d="M40.061 14.705l-.003 18.478c-.117 1.895-.578 3.603-1.381 5.087a11.874 11.874 0 0 1-3.717 4.168c-1.424.983-3.067 1.695-4.882 2.118a21.73 21.73 0 0 1-4.916.555c-2.478 0-4.92-.458-7.258-1.362a18.375 18.375 0 0 1-1.537-.679v5.958c2.54 1.237 6.031 2.065 9.03 2.065 2.14 0 4.023-.124 6.061-.598 2.566-.597 4.91-1.619 6.967-3.041a17.908 17.908 0 0 0 5.614-6.282c1.285-2.374 1.994-5.059 2.121-7.989V14.705h-6.099zM52.117 14.705h6.099v24.397h-6.099zM110.222 29.639a7.62 7.62 0 0 1-1.449 2.458 7.008 7.008 0 0 1-2.287 1.697c-.898.422-1.906.632-3.025.632-1.084 0-2.058-.219-2.922-.658a6.711 6.711 0 0 1-2.186-1.748 8.11 8.11 0 0 1-1.372-2.458 8.446 8.446 0 0 1-.483-2.836c0-1.08.161-2.093.483-3.039a7.374 7.374 0 0 1 1.372-2.458 6.435 6.435 0 0 1 2.186-1.646c.864-.405 1.855-.608 2.973-.608 1.119 0 2.118.203 2.999.608a6.743 6.743 0 0 1 2.262 1.672 7.55 7.55 0 0 1 1.449 2.481c.338.947.508 1.943.508 2.99 0 1.013-.17 1.984-.508 2.913m.508-14.934v3.66h-.102c-.881-1.491-2.067-2.592-3.558-3.304-1.491-.712-3.1-1.068-4.828-1.068-1.83 0-3.482.34-4.956 1.017-1.475.678-2.728 1.593-3.761 2.744-1.035 1.153-1.83 2.508-2.389 4.067-.56 1.559-.839 3.22-.839 4.981 0 1.728.288 3.363.864 4.905.576 1.542 1.38 2.889 2.414 4.041 1.033 1.152 2.296 2.067 3.787 2.745 1.491.677 3.151 1.017 4.981 1.017 1.694 0 3.228-.318 4.601-.951a8.594 8.594 0 0 0 3.379-2.746h.102v1.785c0 1.225-.127 2.347-.381 3.367s-.679 1.905-1.271 2.652c-.593.749-1.39 1.335-2.389 1.761-1 .425-2.228.637-3.685.637-1.525 0-3.054-.244-4.644-.702a13.766 13.766 0 0 1-3.537-1.565l-3.682 3.682a14.954 14.954 0 0 0 2.46 1.584c.982.509 2.008.932 3.075 1.271 1.067.339 2.152.592 3.253.763 1.101.168 2.142.254 3.126.254 2.372 0 4.422-.339 6.15-1.017 1.728-.678 3.159-1.635 4.295-2.872 1.135-1.237 1.974-2.744 2.516-4.524.542-1.778.813-3.769.813-5.972V14.705h-5.794zM10.268 9.94V.488H4.27V9.94H0v4.88h4.27v16.15c0 1.187.109 2.296.331 3.329a6.927 6.927 0 0 0 1.219 2.745c.592.796 1.398 1.423 2.414 1.881 1.017.457 2.339.686 3.965.686.103 0 .207-.003.312-.006a12.35 12.35 0 0 1-.838-1.335c-.803-1.484-1.265-3.193-1.381-5.087V14.705h6.075V9.94h-6.099z" fill="#fff" fill-rule="nonzero"/><path d="M32.733 26.573a10.136 10.136 0 0 0-2.542-1.347 22.46 22.46 0 0 0-2.77-.813c-1.729-.406-3.042-.804-3.94-1.194-.897-.39-1.346-1.059-1.346-2.008 0-.948.407-1.626 1.22-2.033.813-.407 1.71-.61 2.694-.61 1.118 0 2.151.262 3.1.787.948.527 1.931 1.382 2.474 2.093l3.727-3.744c-.983-1.253-2.313-2.186-3.99-2.796a14.983 14.983 0 0 0-5.159-.915c-1.22 0-2.407.153-3.558.457a9.97 9.97 0 0 0-3.101 1.398 7.209 7.209 0 0 0-2.211 2.415c-.558.983-.838 2.152-.838 3.507 0 1.152.203 2.118.61 2.897.406.78.948 1.432 1.626 1.957a8.7 8.7 0 0 0 2.313 1.271c.864.322 1.753.584 2.668.787 1.863.441 3.261.882 4.193 1.322.933.441 1.398 1.17 1.398 2.186 0 .542-.119 1-.355 1.373a2.629 2.629 0 0 1-.941.888 4.52 4.52 0 0 1-1.27.483 6.194 6.194 0 0 1-1.348.153c-1.321 0-2.437-.369-3.608-.864a12.77 12.77 0 0 1-1.868-.965l-3.59 3.59c.992.783 2.141 1.487 3.272 1.924a15.224 15.224 0 0 0 5.541 1.042c1.321 0 2.6-.144 3.837-.432 1.237-.287 2.321-.753 3.253-1.397a7.128 7.128 0 0 0 2.237-2.517c.559-1.033.838-2.295.838-3.786 0-1.186-.237-2.194-.712-3.024a6.638 6.638 0 0 0-1.854-2.085M43.24 5.24h4.752V.438h-9.604v9.605h9.604V8.697c-2.145-.263-3.877-1.609-4.752-3.457M55.166 0a5.24 5.24 0 0 0-5.24 5.24h5.258a6.185 6.185 0 0 1-4.072 3.32A5.241 5.241 0 1 0 55.166 0M87.924 38.57c-.811-1.484-1.259-3.192-1.376-5.088v-9.628c0-1.253-.171-2.473-.508-3.659a8.952 8.952 0 0 0-1.602-3.152c-.729-.915-1.661-1.652-2.796-2.211-1.135-.559-2.499-.839-4.091-.839-1.83 0-3.415.467-4.753 1.398-1.338.932-2.279 2.008-2.82 3.227h-.102v-3.913h-5.795v24.397h6.1V25.684c0-.814.118-1.618.355-2.414s.585-1.5 1.042-2.11a5.412 5.412 0 0 1 1.754-1.499c.712-.389 1.558-.585 2.541-.585.983 0 1.771.204 2.364.61a4.398 4.398 0 0 1 1.398 1.551c.339.627.559 1.329.661 2.109.101.78.152 1.524.152 2.236v5.688c0 1.187.11 2.296.333 3.329a6.905 6.905 0 0 0 1.232 2.745c.598.797 1.411 1.423 2.438 1.881 1.027.457 2.361.686 4.004.686.104 0 .21-.003.315-.006a12.41 12.41 0 0 1-.846-1.335" fill="#fff" fill-rule="nonzero"/></svg>